# xmcd
#
# Track frame offsets: 
#        150
#        16199
#        38110
#        57631
#        69702
#        88819
#        107846
#        123338
#        140912
#        167803
#        182406
#
# Disc length: 2611 seconds
#
# Revision: 0
# Processed by: cddbd v1.5.2PL0 Copyright (c) Steve Scherf et al.
# Submitted via: ExactAudioCopy v0.99pb5
#
DISCID=9d0a310b
DTITLE=Debbie Davies - Holdin Court
DYEAR=2009
DGENRE=Blues
TTITLE0=Fishnet
TTITLE1=Down at the Honky Shack
TTITLE2=Tryin to Keep it Real
TTITLE3=Okie Dokie Stomp
TTITLE4=Percolation
TTITLE5=So What
TTITLE6=Atras De Tus Ojos
TTITLE7=Holdin Court
TTITLE8=I Wonder Why
TTITLE9=If you love me like you say
TTITLE10=Zoom-in
EXTD=
EXTT0=
EXTT1=
EXTT2=
EXTT3=
EXTT4=
EXTT5=
EXTT6=
EXTT7=
EXTT8=
EXTT9=
EXTT10=
PLAYORDER=
